<?xml version="1.0" encoding="UTF-8" standalone="no"?>
<!-- Created with Inkscape (http://www.inkscape.org/) -->

<svg
   xmlns:dc="http://purl.org/dc/elements/1.1/"
   xmlns:cc="http://creativecommons.org/ns#"
   xmlns:rdf="http://www.w3.org/1999/02/22-rdf-syntax-ns#"
   xmlns:svg="http://www.w3.org/2000/svg"
   xmlns="http://www.w3.org/2000/svg"
   version="1.2"
   width="700"
   height="280"
   id="svg2">
  <defs
     id="defs4" />
  <metadata
     id="metadata7">
    <rdf:RDF>
      <cc:Work
         rdf:about="">
        <dc:format>image/svg+xml</dc:format>
        <dc:type
           rdf:resource="http://purl.org/dc/dcmitype/StillImage" />
        <dc:title></dc:title>
      </cc:Work>
    </rdf:RDF>
  </metadata>
  <g
     transform="translate(0,-772.3622)"
     id="layer1">
    <path
       d="m 30,812.36218 140,0 0,50 -140,0 z"
       id="rect3855"
       style="fill:none;stroke:#e1e4e5;stroke-width:1;stroke-linejoin:bevel;stroke-opacity:1" />
    <g
       transform="translate(-22.140625,638.50144)"
       id="flowRoot3857"
       style="font-size:14px;font-style:normal;font-variant:normal;font-weight:normal;font-stretch:normal;text-align:center;line-height:125%;letter-spacing:0px;word-spacing:0px;writing-mode:lr-tb;text-anchor:middle;fill:#404040;fill-opacity:1;stroke:none;font-family:DejaVu Sans;-inkscape-font-specification:DejaVu Sans">
      <path
         d="m 87.222656,197.3666 0,-4.14258 1.257813,0 0,10.63672 -1.257813,0 0,-1.14844 c -0.264329,0.45573 -0.599289,0.79525 -1.004883,1.01856 -0.401046,0.21875 -0.884119,0.32812 -1.449218,0.32812 -0.925133,0 -1.679365,-0.36914 -2.262696,-1.10742 -0.578777,-0.73828 -0.868164,-1.70898 -0.868164,-2.91211 0,-1.20312 0.289387,-2.17382 0.868164,-2.91211 0.583331,-0.73827 1.337563,-1.10741 2.262696,-1.10742 0.565099,10e-6 1.048172,0.11166 1.449218,0.33496 0.405594,0.21876 0.740554,0.556 1.004883,1.01172 m -4.286133,2.67285 c -2e-6,0.92513 0.189126,1.65202 0.567383,2.18066 0.38281,0.52409 0.906898,0.78614 1.572266,0.78614 0.66536,0 1.189448,-0.26205 1.572265,-0.78614 0.382807,-0.52864 0.574213,-1.25553 0.574219,-2.18066 -6e-6,-0.92513 -0.191412,-1.64973 -0.574219,-2.17383 -0.382817,-0.52864 -0.906905,-0.79296 -1.572265,-0.79297 -0.665368,1e-5 -1.189456,0.26433 -1.572266,0.79297 -0.378257,0.5241 -0.567385,1.2487 -0.567383,2.17383"
         id="path4363" />
      <path
         d="m 94.550781,200.01211 c -1.01628,0 -1.72038,0.11621 -2.112304,0.34863 -0.39193,0.23242 -0.587893,0.62891 -0.587891,1.18945 -2e-6,0.44662 0.145831,0.80209 0.4375,1.06641 0.296221,0.25976 0.697262,0.38965 1.203125,0.38965 0.697261,0 1.255529,-0.2461 1.674805,-0.73829 0.423822,-0.49674 0.635736,-1.15527 0.635742,-1.97558 l 0,-0.28027 -1.250977,0 m 2.508789,-0.51954 0,4.36817 -1.257812,0 0,-1.16211 c -0.287115,0.46484 -0.644862,0.80892 -1.073242,1.03223 -0.42839,0.21875 -0.952478,0.32812 -1.572266,0.32812 -0.783857,0 -1.408205,-0.21875 -1.873047,-0.65625 -0.460287,-0.44206 -0.69043,-1.03222 -0.69043,-1.77051 0,-0.86132 0.287109,-1.51074 0.861329,-1.94824 0.578773,-0.43749 1.440101,-0.65624 2.583984,-0.65625 l 1.763672,0 0,-0.12305 c -6e-6,-0.57877 -0.191412,-1.02538 -0.574219,-1.33984 -0.37826,-0.319 -0.911463,-0.47851 -1.599609,-0.47852 -0.437504,1e-5 -0.86361,0.0524 -1.278321,0.15723 -0.414715,0.10482 -0.813478,0.26205 -1.196289,0.47168 l 0,-1.16211 c 0.460285,-0.17773 0.906899,-0.30989 1.339844,-0.39648 0.43294,-0.0911 0.854489,-0.13671 1.264648,-0.13672 1.107417,10e-6 1.934565,0.28711 2.481446,0.86133 0.546868,0.57422 0.820305,1.44466 0.820312,2.61132"
         id="path4365" />
      <path
         d="m 100.90137,194.03066 0,2.17383 2.59082,0 0,0.97754 -2.59082,0 0,4.15625 c -1e-5,0.62435 0.0843,1.02539 0.25293,1.20312 0.17317,0.17774 0.5218,0.2666 1.0459,0.2666 l 1.29199,0 0,1.05274 -1.29199,0 c -0.97071,0 -1.64063,-0.18001 -2.00977,-0.54004 -0.369142,-0.36458 -0.553713,-1.02539 -0.553711,-1.98242 l 0,-4.15625 -0.922852,0 0,-0.97754 0.922852,0 0,-2.17383 1.264651,0"
         id="path4367" />
      <path
         d="m 108.63281,200.01211 c -1.01628,0 -1.72038,0.11621 -2.1123,0.34863 -0.39193,0.23242 -0.58789,0.62891 -0.58789,1.18945 0,0.44662 0.14583,0.80209 0.4375,1.06641 0.29622,0.25976 0.69726,0.38965 1.20312,0.38965 0.69726,0 1.25553,-0.2461 1.67481,-0.73829 0.42382,-0.49674 0.63573,-1.15527 0.63574,-1.97558 l 0,-0.28027 -1.25098,0 m 2.50879,-0.51954 0,4.36817 -1.25781,0 0,-1.16211 c -0.28712,0.46484 -0.64486,0.80892 -1.07324,1.03223 -0.42839,0.21875 -0.95248,0.32812 -1.57227,0.32812 -0.78386,0 -1.4082,-0.21875 -1.87305,-0.65625 -0.46028,-0.44206 -0.69043,-1.03222 -0.69043,-1.77051 0,-0.86132 0.28711,-1.51074 0.86133,-1.94824 0.57878,-0.43749 1.4401,-0.65624 2.58399,-0.65625 l 1.76367,0 0,-0.12305 c -1e-5,-0.57877 -0.19141,-1.02538 -0.57422,-1.33984 -0.37826,-0.319 -0.91146,-0.47851 -1.59961,-0.47852 -0.4375,1e-5 -0.86361,0.0524 -1.27832,0.15723 -0.41472,0.10482 -0.81348,0.26205 -1.19629,0.47168 l 0,-1.16211 c 0.46029,-0.17773 0.9069,-0.30989 1.33985,-0.39648 0.43293,-0.0911 0.85448,-0.13671 1.26464,-0.13672 1.10742,10e-6 1.93457,0.28711 2.48145,0.86133 0.54687,0.57422 0.8203,1.44466 0.82031,2.61132"
         id="path4369" />
      <path
         d="m 123.07715,196.43007 0,1.18946 c -0.35548,-0.18229 -0.72462,-0.31901 -1.10742,-0.41016 -0.38282,-0.0911 -0.7793,-0.13671 -1.18946,-0.13672 -0.62435,1e-5 -1.09375,0.0957 -1.4082,0.28711 -0.3099,0.19141 -0.46485,0.47852 -0.46484,0.86133 -1e-5,0.29167 0.11165,0.52181 0.33496,0.69043 0.2233,0.16407 0.67219,0.32129 1.34668,0.47168 l 0.43066,0.0957 c 0.89323,0.19141 1.52669,0.46257 1.90039,0.81348 0.37825,0.34636 0.56738,0.83171 0.56738,1.45605 0,0.71094 -0.28255,1.27377 -0.84765,1.68848 -0.56055,0.41471 -1.33301,0.62207 -2.31738,0.62207 -0.41016,0 -0.83855,-0.041 -1.28516,-0.12305 -0.44206,-0.0775 -0.90918,-0.19596 -1.40137,-0.35547 l 0,-1.29882 c 0.46484,0.24153 0.92285,0.42383 1.37403,0.54687 0.45116,0.11849 0.89778,0.17774 1.33984,0.17774 0.59244,0 1.04817,-0.10026 1.36719,-0.30079 0.319,-0.20507 0.47851,-0.49218 0.47851,-0.86132 0,-0.3418 -0.11621,-0.60384 -0.34863,-0.78614 -0.22787,-0.18228 -0.73145,-0.35774 -1.51074,-0.52636 l -0.4375,-0.10254 c -0.7793,-0.16406 -1.34213,-0.41471 -1.68848,-0.75196 -0.34635,-0.34179 -0.51953,-0.80891 -0.51953,-1.40136 0,-0.72005 0.25521,-1.27604 0.76562,-1.66797 0.51042,-0.39192 1.23503,-0.58788 2.17383,-0.58789 0.46484,10e-6 0.90234,0.0342 1.3125,0.10254 0.41015,0.0684 0.78841,0.1709 1.13477,0.30761"
         id="path4371" />
      <path
         d="m 128.46387,197.08632 c -0.67449,1e-5 -1.20769,0.26433 -1.59961,0.79297 -0.39193,0.5241 -0.58789,1.24415 -0.58789,2.16016 0,0.91602 0.19368,1.63835 0.58105,2.16699 0.39193,0.52409 0.92741,0.78614 1.60645,0.78613 0.66991,1e-5 1.20084,-0.26432 1.59277,-0.79296 0.39192,-0.52865 0.58788,-1.2487 0.58789,-2.16016 -1e-5,-0.9069 -0.19597,-1.62467 -0.58789,-2.15332 -0.39193,-0.5332 -0.92286,-0.7998 -1.59277,-0.79981 m 0,-1.0664 c 1.09374,10e-6 1.95279,0.35547 2.57715,1.0664 0.62434,0.71095 0.93651,1.69532 0.93652,2.95313 -1e-5,1.25326 -0.31218,2.23763 -0.93652,2.95312 -0.62436,0.71094 -1.48341,1.06641 -2.57715,1.06641 -1.09831,0 -1.95964,-0.35547 -2.58399,-1.06641 -0.61979,-0.71549 -0.92969,-1.69986 -0.92968,-2.95312 -10e-6,-1.25781 0.30989,-2.24218 0.92968,-2.95313 0.62435,-0.71093 1.48568,-1.06639 2.58399,-1.0664"
         id="path4373" />
      <path
         d="m 133.92578,200.83925 0,-4.63476 1.25781,0 0,4.58691 c 0,0.72461 0.14128,1.26921 0.42383,1.63379 0.28255,0.36003 0.70638,0.54004 1.27149,0.54004 0.67903,0 1.21451,-0.21647 1.60644,-0.64941 0.39648,-0.43294 0.59472,-1.02311 0.59473,-1.77051 l 0,-4.34082 1.25781,0 0,7.65625 -1.25781,0 0,-1.17578 c -0.30535,0.46484 -0.66081,0.8112 -1.06641,1.03906 -0.40104,0.22331 -0.86817,0.33496 -1.40137,0.33496 -0.87956,0 -1.5472,-0.27344 -2.00293,-0.82031 -0.45573,-0.54688 -0.68359,-1.34668 -0.68359,-2.39942 m 3.16504,-4.81933 0,0"
         id="path4375" />
      <path
         d="m 147.37891,197.38027 c -0.14129,-0.082 -0.29623,-0.14127 -0.46485,-0.17773 -0.16407,-0.041 -0.34636,-0.0615 -0.54687,-0.0615 -0.71094,1e-5 -1.25782,0.23243 -1.64063,0.69727 -0.37826,0.46029 -0.56738,1.12337 -0.56738,1.98926 l 0,4.0332 -1.26465,0 0,-7.65625 1.26465,0 0,1.18945 c 0.26432,-0.46484 0.60839,-0.80891 1.03223,-1.03223 0.42382,-0.22785 0.93879,-0.34178 1.54492,-0.34179 0.0866,1e-5 0.18228,0.007 0.28711,0.0205 0.10481,0.009 0.22102,0.0251 0.34863,0.0479 l 0.007,1.29199"
         id="path4377" />
      <path
         d="m 153.9209,196.49843 0,1.17578 c -0.35548,-0.19595 -0.71322,-0.34179 -1.07324,-0.4375 -0.35548,-0.10025 -0.7155,-0.15038 -1.08008,-0.15039 -0.81576,1e-5 -1.44922,0.25978 -1.90039,0.7793 -0.45118,0.51498 -0.67676,1.23959 -0.67676,2.17383 0,0.93425 0.22558,1.66113 0.67676,2.18066 0.45117,0.51498 1.08463,0.77247 1.90039,0.77246 0.36458,1e-5 0.7246,-0.0479 1.08008,-0.14355 0.36002,-0.10026 0.71776,-0.24837 1.07324,-0.44434 l 0,1.16211 c -0.35092,0.16407 -0.7155,0.28711 -1.09375,0.36914 -0.3737,0.082 -0.77247,0.12305 -1.19629,0.12305 -1.153,0 -2.06901,-0.3623 -2.74805,-1.08691 -0.67904,-0.72461 -1.01855,-1.70215 -1.01855,-2.93262 0,-1.24869 0.34179,-2.23079 1.02539,-2.94629 0.68815,-0.71549 1.62923,-1.07323 2.82324,-1.07324 0.38737,10e-6 0.76562,0.041 1.13477,0.12304 0.36913,0.0775 0.72688,0.19598 1.07324,0.35547"
         id="path4379" />
      <path
         d="m 162.6709,199.71816 0,0.61523 -5.7832,0 c 0.0547,0.86589 0.31445,1.5267 0.77929,1.98243 0.4694,0.45117 1.12109,0.67676 1.95508,0.67675 0.48307,1e-5 0.95019,-0.0592 1.40137,-0.17773 0.45572,-0.11849 0.90689,-0.29622 1.35351,-0.5332 l 0,1.18945 c -0.45118,0.19141 -0.91374,0.33724 -1.38769,0.4375 -0.47397,0.10026 -0.95476,0.15039 -1.44239,0.15039 -1.22135,0 -2.18978,-0.35547 -2.90527,-1.06641 -0.71094,-0.71093 -1.06641,-1.67252 -1.0664,-2.88476 -1e-5,-1.25325 0.33723,-2.24674 1.01171,-2.98047 0.67904,-0.73827 1.59277,-1.10741 2.74121,-1.10742 1.02995,10e-6 1.84342,0.33269 2.44043,0.99804 0.60156,0.66082 0.90234,1.56088 0.90235,2.7002 m -1.25781,-0.36914 c -0.009,-0.68815 -0.20281,-1.2373 -0.58106,-1.64746 -0.3737,-0.41015 -0.87045,-0.61523 -1.49023,-0.61524 -0.70183,1e-5 -1.26465,0.19825 -1.68848,0.59473 -0.41927,0.39649 -0.66081,0.95476 -0.72461,1.67481 l 4.48438,-0.007"
         id="path4381" />
    </g>
    <path
       d="m 30,912.36218 140,0 0,50 -140,0 z"
       id="rect3855-3"
       style="fill:none;stroke:#e1e4e5;stroke-width:1;stroke-linejoin:bevel;stroke-opacity:1" />
    <g
       transform="translate(-22.140625,738.50144)"
       id="flowRoot3857-6"
       style="font-size:14px;font-style:normal;font-variant:normal;font-weight:normal;font-stretch:normal;text-align:center;line-height:125%;letter-spacing:0px;word-spacing:0px;writing-mode:lr-tb;text-anchor:middle;fill:#404040;fill-opacity:1;stroke:none;font-family:DejaVu Sans;-inkscape-font-specification:DejaVu Sans">
      <path
         d="m 87.222656,197.3666 0,-4.14258 1.257813,0 0,10.63672 -1.257813,0 0,-1.14844 c -0.264329,0.45573 -0.599289,0.79525 -1.004883,1.01856 -0.401046,0.21875 -0.884119,0.32812 -1.449218,0.32812 -0.925133,0 -1.679365,-0.36914 -2.262696,-1.10742 -0.578777,-0.73828 -0.868164,-1.70898 -0.868164,-2.91211 0,-1.20312 0.289387,-2.17382 0.868164,-2.91211 0.583331,-0.73827 1.337563,-1.10741 2.262696,-1.10742 0.565099,10e-6 1.048172,0.11166 1.449218,0.33496 0.405594,0.21876 0.740554,0.556 1.004883,1.01172 m -4.286133,2.67285 c -2e-6,0.92513 0.189126,1.65202 0.567383,2.18066 0.38281,0.52409 0.906898,0.78614 1.572266,0.78614 0.66536,0 1.189448,-0.26205 1.572265,-0.78614 0.382807,-0.52864 0.574213,-1.25553 0.574219,-2.18066 -6e-6,-0.92513 -0.191412,-1.64973 -0.574219,-2.17383 -0.382817,-0.52864 -0.906905,-0.79296 -1.572265,-0.79297 -0.665368,1e-5 -1.189456,0.26433 -1.572266,0.79297 -0.378257,0.5241 -0.567385,1.2487 -0.567383,2.17383"
         id="path4341" />
      <path
         d="m 94.550781,200.01211 c -1.01628,0 -1.72038,0.11621 -2.112304,0.34863 -0.39193,0.23242 -0.587893,0.62891 -0.587891,1.18945 -2e-6,0.44662 0.145831,0.80209 0.4375,1.06641 0.296221,0.25976 0.697262,0.38965 1.203125,0.38965 0.697261,0 1.255529,-0.2461 1.674805,-0.73829 0.423822,-0.49674 0.635736,-1.15527 0.635742,-1.97558 l 0,-0.28027 -1.250977,0 m 2.508789,-0.51954 0,4.36817 -1.257812,0 0,-1.16211 c -0.287115,0.46484 -0.644862,0.80892 -1.073242,1.03223 -0.42839,0.21875 -0.952478,0.32812 -1.572266,0.32812 -0.783857,0 -1.408205,-0.21875 -1.873047,-0.65625 -0.460287,-0.44206 -0.69043,-1.03222 -0.69043,-1.77051 0,-0.86132 0.287109,-1.51074 0.861329,-1.94824 0.578773,-0.43749 1.440101,-0.65624 2.583984,-0.65625 l 1.763672,0 0,-0.12305 c -6e-6,-0.57877 -0.191412,-1.02538 -0.574219,-1.33984 -0.37826,-0.319 -0.911463,-0.47851 -1.599609,-0.47852 -0.437504,1e-5 -0.86361,0.0524 -1.278321,0.15723 -0.414715,0.10482 -0.813478,0.26205 -1.196289,0.47168 l 0,-1.16211 c 0.460285,-0.17773 0.906899,-0.30989 1.339844,-0.39648 0.43294,-0.0911 0.854489,-0.13671 1.264648,-0.13672 1.107417,10e-6 1.934565,0.28711 2.481446,0.86133 0.546868,0.57422 0.820305,1.44466 0.820312,2.61132"
         id="path4343" />
      <path
         d="m 100.90137,194.03066 0,2.17383 2.59082,0 0,0.97754 -2.59082,0 0,4.15625 c -1e-5,0.62435 0.0843,1.02539 0.25293,1.20312 0.17317,0.17774 0.5218,0.2666 1.0459,0.2666 l 1.29199,0 0,1.05274 -1.29199,0 c -0.97071,0 -1.64063,-0.18001 -2.00977,-0.54004 -0.369142,-0.36458 -0.553713,-1.02539 -0.553711,-1.98242 l 0,-4.15625 -0.922852,0 0,-0.97754 0.922852,0 0,-2.17383 1.264651,0"
         id="path4345" />
      <path
         d="m 108.63281,200.01211 c -1.01628,0 -1.72038,0.11621 -2.1123,0.34863 -0.39193,0.23242 -0.58789,0.62891 -0.58789,1.18945 0,0.44662 0.14583,0.80209 0.4375,1.06641 0.29622,0.25976 0.69726,0.38965 1.20312,0.38965 0.69726,0 1.25553,-0.2461 1.67481,-0.73829 0.42382,-0.49674 0.63573,-1.15527 0.63574,-1.97558 l 0,-0.28027 -1.25098,0 m 2.50879,-0.51954 0,4.36817 -1.25781,0 0,-1.16211 c -0.28712,0.46484 -0.64486,0.80892 -1.07324,1.03223 -0.42839,0.21875 -0.95248,0.32812 -1.57227,0.32812 -0.78386,0 -1.4082,-0.21875 -1.87305,-0.65625 -0.46028,-0.44206 -0.69043,-1.03222 -0.69043,-1.77051 0,-0.86132 0.28711,-1.51074 0.86133,-1.94824 0.57878,-0.43749 1.4401,-0.65624 2.58399,-0.65625 l 1.76367,0 0,-0.12305 c -1e-5,-0.57877 -0.19141,-1.02538 -0.57422,-1.33984 -0.37826,-0.319 -0.91146,-0.47851 -1.59961,-0.47852 -0.4375,1e-5 -0.86361,0.0524 -1.27832,0.15723 -0.41472,0.10482 -0.81348,0.26205 -1.19629,0.47168 l 0,-1.16211 c 0.46029,-0.17773 0.9069,-0.30989 1.33985,-0.39648 0.43293,-0.0911 0.85448,-0.13671 1.26464,-0.13672 1.10742,10e-6 1.93457,0.28711 2.48145,0.86133 0.54687,0.57422 0.8203,1.44466 0.82031,2.61132"
         id="path4347" />
      <path
         d="m 123.07715,196.43007 0,1.18946 c -0.35548,-0.18229 -0.72462,-0.31901 -1.10742,-0.41016 -0.38282,-0.0911 -0.7793,-0.13671 -1.18946,-0.13672 -0.62435,1e-5 -1.09375,0.0957 -1.4082,0.28711 -0.3099,0.19141 -0.46485,0.47852 -0.46484,0.86133 -1e-5,0.29167 0.11165,0.52181 0.33496,0.69043 0.2233,0.16407 0.67219,0.32129 1.34668,0.47168 l 0.43066,0.0957 c 0.89323,0.19141 1.52669,0.46257 1.90039,0.81348 0.37825,0.34636 0.56738,0.83171 0.56738,1.45605 0,0.71094 -0.28255,1.27377 -0.84765,1.68848 -0.56055,0.41471 -1.33301,0.62207 -2.31738,0.62207 -0.41016,0 -0.83855,-0.041 -1.28516,-0.12305 -0.44206,-0.0775 -0.90918,-0.19596 -1.40137,-0.35547 l 0,-1.29882 c 0.46484,0.24153 0.92285,0.42383 1.37403,0.54687 0.45116,0.11849 0.89778,0.17774 1.33984,0.17774 0.59244,0 1.04817,-0.10026 1.36719,-0.30079 0.319,-0.20507 0.47851,-0.49218 0.47851,-0.86132 0,-0.3418 -0.11621,-0.60384 -0.34863,-0.78614 -0.22787,-0.18228 -0.73145,-0.35774 -1.51074,-0.52636 l -0.4375,-0.10254 c -0.7793,-0.16406 -1.34213,-0.41471 -1.68848,-0.75196 -0.34635,-0.34179 -0.51953,-0.80891 -0.51953,-1.40136 0,-0.72005 0.25521,-1.27604 0.76562,-1.66797 0.51042,-0.39192 1.23503,-0.58788 2.17383,-0.58789 0.46484,10e-6 0.90234,0.0342 1.3125,0.10254 0.41015,0.0684 0.78841,0.1709 1.13477,0.30761"
         id="path4349" />
      <path
         d="m 128.46387,197.08632 c -0.67449,1e-5 -1.20769,0.26433 -1.59961,0.79297 -0.39193,0.5241 -0.58789,1.24415 -0.58789,2.16016 0,0.91602 0.19368,1.63835 0.58105,2.16699 0.39193,0.52409 0.92741,0.78614 1.60645,0.78613 0.66991,1e-5 1.20084,-0.26432 1.59277,-0.79296 0.39192,-0.52865 0.58788,-1.2487 0.58789,-2.16016 -1e-5,-0.9069 -0.19597,-1.62467 -0.58789,-2.15332 -0.39193,-0.5332 -0.92286,-0.7998 -1.59277,-0.79981 m 0,-1.0664 c 1.09374,10e-6 1.95279,0.35547 2.57715,1.0664 0.62434,0.71095 0.93651,1.69532 0.93652,2.95313 -1e-5,1.25326 -0.31218,2.23763 -0.93652,2.95312 -0.62436,0.71094 -1.48341,1.06641 -2.57715,1.06641 -1.09831,0 -1.95964,-0.35547 -2.58399,-1.06641 -0.61979,-0.71549 -0.92969,-1.69986 -0.92968,-2.95312 -10e-6,-1.25781 0.30989,-2.24218 0.92968,-2.95313 0.62435,-0.71093 1.48568,-1.06639 2.58399,-1.0664"
         id="path4351" />
      <path
         d="m 133.92578,200.83925 0,-4.63476 1.25781,0 0,4.58691 c 0,0.72461 0.14128,1.26921 0.42383,1.63379 0.28255,0.36003 0.70638,0.54004 1.27149,0.54004 0.67903,0 1.21451,-0.21647 1.60644,-0.64941 0.39648,-0.43294 0.59472,-1.02311 0.59473,-1.77051 l 0,-4.34082 1.25781,0 0,7.65625 -1.25781,0 0,-1.17578 c -0.30535,0.46484 -0.66081,0.8112 -1.06641,1.03906 -0.40104,0.22331 -0.86817,0.33496 -1.40137,0.33496 -0.87956,0 -1.5472,-0.27344 -2.00293,-0.82031 -0.45573,-0.54688 -0.68359,-1.34668 -0.68359,-2.39942 m 3.16504,-4.81933 0,0"
         id="path4353" />
      <path
         d="m 147.37891,197.38027 c -0.14129,-0.082 -0.29623,-0.14127 -0.46485,-0.17773 -0.16407,-0.041 -0.34636,-0.0615 -0.54687,-0.0615 -0.71094,1e-5 -1.25782,0.23243 -1.64063,0.69727 -0.37826,0.46029 -0.56738,1.12337 -0.56738,1.98926 l 0,4.0332 -1.26465,0 0,-7.65625 1.26465,0 0,1.18945 c 0.26432,-0.46484 0.60839,-0.80891 1.03223,-1.03223 0.42382,-0.22785 0.93879,-0.34178 1.54492,-0.34179 0.0866,1e-5 0.18228,0.007 0.28711,0.0205 0.10481,0.009 0.22102,0.0251 0.34863,0.0479 l 0.007,1.29199"
         id="path4355" />
      <path
         d="m 153.9209,196.49843 0,1.17578 c -0.35548,-0.19595 -0.71322,-0.34179 -1.07324,-0.4375 -0.35548,-0.10025 -0.7155,-0.15038 -1.08008,-0.15039 -0.81576,1e-5 -1.44922,0.25978 -1.90039,0.7793 -0.45118,0.51498 -0.67676,1.23959 -0.67676,2.17383 0,0.93425 0.22558,1.66113 0.67676,2.18066 0.45117,0.51498 1.08463,0.77247 1.90039,0.77246 0.36458,1e-5 0.7246,-0.0479 1.08008,-0.14355 0.36002,-0.10026 0.71776,-0.24837 1.07324,-0.44434 l 0,1.16211 c -0.35092,0.16407 -0.7155,0.28711 -1.09375,0.36914 -0.3737,0.082 -0.77247,0.12305 -1.19629,0.12305 -1.153,0 -2.06901,-0.3623 -2.74805,-1.08691 -0.67904,-0.72461 -1.01855,-1.70215 -1.01855,-2.93262 0,-1.24869 0.34179,-2.23079 1.02539,-2.94629 0.68815,-0.71549 1.62923,-1.07323 2.82324,-1.07324 0.38737,10e-6 0.76562,0.041 1.13477,0.12304 0.36913,0.0775 0.72688,0.19598 1.07324,0.35547"
         id="path4357" />
      <path
         d="m 162.6709,199.71816 0,0.61523 -5.7832,0 c 0.0547,0.86589 0.31445,1.5267 0.77929,1.98243 0.4694,0.45117 1.12109,0.67676 1.95508,0.67675 0.48307,1e-5 0.95019,-0.0592 1.40137,-0.17773 0.45572,-0.11849 0.90689,-0.29622 1.35351,-0.5332 l 0,1.18945 c -0.45118,0.19141 -0.91374,0.33724 -1.38769,0.4375 -0.47397,0.10026 -0.95476,0.15039 -1.44239,0.15039 -1.22135,0 -2.18978,-0.35547 -2.90527,-1.06641 -0.71094,-0.71093 -1.06641,-1.67252 -1.0664,-2.88476 -1e-5,-1.25325 0.33723,-2.24674 1.01171,-2.98047 0.67904,-0.73827 1.59277,-1.10741 2.74121,-1.10742 1.02995,10e-6 1.84342,0.33269 2.44043,0.99804 0.60156,0.66082 0.90234,1.56088 0.90235,2.7002 m -1.25781,-0.36914 c -0.009,-0.68815 -0.20281,-1.2373 -0.58106,-1.64746 -0.3737,-0.41015 -0.87045,-0.61523 -1.49023,-0.61524 -0.70183,1e-5 -1.26465,0.19825 -1.68848,0.59473 -0.41927,0.39649 -0.66081,0.95476 -0.72461,1.67481 l 4.48438,-0.007"
         id="path4359" />
    </g>
    <path
       d="m 30,982.36218 140,0 0,50.00002 -140,0 z"
       id="rect3855-5"
       style="fill:none;stroke:#e1e4e5;stroke-width:1;stroke-linejoin:bevel;stroke-opacity:1" />
    <g
       transform="translate(-22.140625,808.50144)"
       id="flowRoot3857-9"
       style="font-size:14px;font-style:normal;font-variant:normal;font-weight:normal;font-stretch:normal;text-align:center;line-height:125%;letter-spacing:0px;word-spacing:0px;writing-mode:lr-tb;text-anchor:middle;fill:#404040;fill-opacity:1;stroke:none;font-family:DejaVu Sans;-inkscape-font-specification:DejaVu Sans">
      <path
         d="m 114.72363,202.12441 1.44239,0 0,1.73633 -1.44239,0 0,-1.73633"
         id="path4331" />
      <path
         d="m 119.18066,202.12441 1.44239,0 0,1.73633 -1.44239,0 0,-1.73633"
         id="path4333" />
      <path
         d="m 123.6377,202.12441 1.44238,0 0,1.73633 -1.44238,0 0,-1.73633"
         id="path4335" />
      <path
         d="m 128.09473,202.12441 1.44238,0 0,1.73633 -1.44238,0 0,-1.73633"
         id="path4337" />
    </g>
    <path
       d="m 280,872.36218 140,0 0,50 -140,0 z"
       id="rect3855-6"
       style="fill:none;stroke:#e1e4e5;stroke-width:1;stroke-linejoin:bevel;stroke-opacity:1" />
    <g
       transform="translate(227.85937,698.50144)"
       id="flowRoot3857-69"
       style="font-size:14px;font-style:normal;font-variant:normal;font-weight:bold;font-stretch:normal;text-align:center;line-height:125%;letter-spacing:0px;word-spacing:0px;writing-mode:lr-tb;text-anchor:middle;fill:#404040;fill-opacity:1;stroke:none;font-family:DejaVu Sans;-inkscape-font-specification:DejaVu Sans Bold">
      <path
         d="m 104.15527,196.44375 0,1.85937 c -0.52409,-0.21874 -1.02995,-0.38281 -1.51757,-0.49219 -0.48764,-0.10937 -0.94793,-0.16405 -1.38086,-0.16406 -0.46485,1e-5 -0.81121,0.0592 -1.03907,0.17774 -0.223307,0.11393 -0.33496,0.29167 -0.334958,0.5332 -2e-6,0.19597 0.08431,0.34636 0.252928,0.45117 0.17318,0.10482 0.48079,0.1823 0.92285,0.23242 l 0.43067,0.0615 c 1.25325,0.15951 2.09635,0.42155 2.52929,0.78613 0.43294,0.36459 0.64941,0.93653 0.64942,1.71582 -1e-5,0.81576 -0.30079,1.42871 -0.90234,1.83887 -0.60157,0.41015 -1.49936,0.61523 -2.69336,0.61523 -0.50587,0 -1.02996,-0.041 -1.57227,-0.12305 -0.537762,-0.0775 -1.091473,-0.19596 -1.661133,-0.35547 l 0,-1.85937 c 0.487629,0.23698 0.986652,0.41472 1.49707,0.5332 0.514972,0.11849 1.036783,0.17774 1.565433,0.17774 0.47851,0 0.83853,-0.0661 1.08008,-0.19824 0.24153,-0.13216 0.36229,-0.32813 0.3623,-0.5879 -1e-5,-0.21874 -0.0843,-0.38053 -0.25293,-0.48535 -0.16407,-0.10937 -0.49447,-0.19368 -0.99121,-0.25293 l -0.43066,-0.0547 c -1.0892,-0.13672 -1.852546,-0.38965 -2.290044,-0.75879 -0.437501,-0.36914 -0.65625,-0.92969 -0.65625,-1.68164 0,-0.8112 0.277994,-1.41276 0.833985,-1.80469 0.555987,-0.39192 1.4082,-0.58788 2.556639,-0.58789 0.45117,1e-5 0.92513,0.0342 1.42188,0.10254 0.49674,0.0684 1.03677,0.17546 1.62011,0.32129"
         id="path4317" />
      <path
         d="m 114.15625,200.01211 0,0.69726 -5.72168,0 c 0.0592,0.57422 0.2666,1.00489 0.62207,1.29199 0.35547,0.28711 0.85221,0.43067 1.49024,0.43067 0.51496,0 1.04133,-0.0752 1.5791,-0.22559 0.54231,-0.15494 1.0983,-0.38737 1.66797,-0.69726 l 0,1.88671 c -0.57879,0.21875 -1.15756,0.38282 -1.73633,0.49219 -0.57878,0.11393 -1.15756,0.1709 -1.73633,0.1709 -1.38542,0 -2.46322,-0.35091 -3.2334,-1.05273 -0.76563,-0.70638 -1.14844,-1.69531 -1.14844,-2.9668 0,-1.24869 0.37598,-2.23079 1.12793,-2.94629 0.75651,-0.71549 1.79557,-1.07323 3.11719,-1.07324 1.20312,10e-6 2.16471,0.36231 2.88477,1.08691 0.7246,0.72462 1.0869,1.69304 1.08691,2.90528 m -2.51562,-0.81348 c -1e-5,-0.46484 -0.13673,-0.83854 -0.41016,-1.12109 -0.26889,-0.28711 -0.62208,-0.43066 -1.05957,-0.43067 -0.47396,1e-5 -0.85906,0.13445 -1.15527,0.40332 -0.29623,0.26433 -0.4808,0.64714 -0.55372,1.14844 l 3.17872,0"
         id="path4319" />
      <path
         d="m 121.68945,198.28945 c -0.2142,-0.10026 -0.42839,-0.17317 -0.64257,-0.21875 -0.20965,-0.0501 -0.42156,-0.0752 -0.63575,-0.0752 -0.62891,1e-5 -1.11426,0.20281 -1.45605,0.6084 -0.33725,0.40105 -0.50586,0.97755 -0.50586,1.72949 l 0,3.52735 -2.44727,0 0,-7.65625 2.44727,0 0,1.25781 c 0.31445,-0.50129 0.67447,-0.86588 1.08008,-1.09375 0.41015,-0.23241 0.90006,-0.34862 1.46972,-0.34863 0.082,10e-6 0.1709,0.005 0.26661,0.0137 0.0957,0.005 0.23469,0.0182 0.41699,0.041 l 0.007,2.21484"
         id="path4321" />
      <path
         d="m 121.95605,196.20449 2.44727,0 1.90723,5.29101 1.90039,-5.29101 2.4541,0 -3.01465,7.65625 -2.68652,0 -3.00782,-7.65625"
         id="path4323" />
      <path
         d="m 139.69531,200.01211 0,0.69726 -5.72168,0 c 0.0592,0.57422 0.2666,1.00489 0.62207,1.29199 0.35547,0.28711 0.85221,0.43067 1.49024,0.43067 0.51497,0 1.04133,-0.0752 1.5791,-0.22559 0.54231,-0.15494 1.0983,-0.38737 1.66797,-0.69726 l 0,1.88671 c -0.57879,0.21875 -1.15756,0.38282 -1.73633,0.49219 -0.57878,0.11393 -1.15756,0.1709 -1.73633,0.1709 -1.38542,0 -2.46322,-0.35091 -3.2334,-1.05273 -0.76562,-0.70638 -1.14843,-1.69531 -1.14843,-2.9668 0,-1.24869 0.37597,-2.23079 1.12793,-2.94629 0.7565,-0.71549 1.79556,-1.07323 3.11718,-1.07324 1.20312,10e-6 2.16471,0.36231 2.88477,1.08691 0.7246,0.72462 1.0869,1.69304 1.08691,2.90528 m -2.51562,-0.81348 c -1e-5,-0.46484 -0.13673,-0.83854 -0.41016,-1.12109 -0.26888,-0.28711 -0.62207,-0.43066 -1.05957,-0.43067 -0.47396,1e-5 -0.85905,0.13445 -1.15527,0.40332 -0.29623,0.26433 -0.4808,0.64714 -0.55371,1.14844 l 3.17871,0"
         id="path4325" />
      <path
         d="m 147.22852,198.28945 c -0.2142,-0.10026 -0.4284,-0.17317 -0.64258,-0.21875 -0.20964,-0.0501 -0.42156,-0.0752 -0.63574,-0.0752 -0.62892,1e-5 -1.11427,0.20281 -1.45606,0.6084 -0.33724,0.40105 -0.50586,0.97755 -0.50586,1.72949 l 0,3.52735 -2.44726,0 0,-7.65625 2.44726,0 0,1.25781 c 0.31445,-0.50129 0.67448,-0.86588 1.08008,-1.09375 0.41015,-0.23241 0.90006,-0.34862 1.46973,-0.34863 0.082,10e-6 0.17089,0.005 0.2666,0.0137 0.0957,0.005 0.23469,0.0182 0.41699,0.041 l 0.007,2.21484"
         id="path4327" />
    </g>
    <path
       d="m 170,832.36218 c 60,0 60,60 110,60"
       id="path3927"
       style="fill:none;stroke:#2980b9;stroke-width:2;stroke-linecap:butt;stroke-linejoin:bevel;stroke-miterlimit:4;stroke-opacity:1;stroke-dasharray:none;stroke-dashoffset:0" />
    <path
       d="m 170,932.36218 c 60,0 60,-30 110,-30"
       id="path3927-6"
       style="fill:none;stroke:#2980b9;stroke-width:2;stroke-linecap:butt;stroke-linejoin:bevel;stroke-miterlimit:4;stroke-opacity:1;stroke-dasharray:none;stroke-dashoffset:0" />
    <path
       d="m 170,1002.3622 c 60,0 60,-90.00002 110,-90.00002"
       id="path3927-5"
       style="fill:none;stroke:#2980b9;stroke-width:2;stroke-linecap:butt;stroke-linejoin:bevel;stroke-miterlimit:4;stroke-opacity:1;stroke-dasharray:4, 4;stroke-dashoffset:0" />
    <path
       d="m 530,812.36218 140,0 0,50 -140,0 z"
       id="rect3855-4"
       style="fill:none;stroke:#e1e4e5;stroke-width:1;stroke-linejoin:bevel;stroke-opacity:1" />
    <g
       transform="translate(477.85937,638.50144)"
       id="flowRoot3857-95"
       style="font-size:14px;font-style:normal;font-variant:normal;font-weight:normal;font-stretch:normal;text-align:center;line-height:125%;letter-spacing:0px;word-spacing:0px;writing-mode:lr-tb;text-anchor:middle;fill:#404040;fill-opacity:1;stroke:none;font-family:DejaVu Sans;-inkscape-font-specification:DejaVu Sans">
      <path
         d="m 109.7334,196.49843 0,1.17578 c -0.35548,-0.19595 -0.71322,-0.34179 -1.07324,-0.4375 -0.35548,-0.10025 -0.7155,-0.15038 -1.08008,-0.15039 -0.81576,1e-5 -1.44922,0.25978 -1.90039,0.7793 -0.45118,0.51498 -0.67676,1.23959 -0.67676,2.17383 0,0.93425 0.22558,1.66113 0.67676,2.18066 0.45117,0.51498 1.08463,0.77247 1.90039,0.77246 0.36458,1e-5 0.7246,-0.0479 1.08008,-0.14355 0.36002,-0.10026 0.71776,-0.24837 1.07324,-0.44434 l 0,1.16211 c -0.35092,0.16407 -0.7155,0.28711 -1.09375,0.36914 -0.3737,0.082 -0.77247,0.12305 -1.19629,0.12305 -1.153,0 -2.06901,-0.3623 -2.74805,-1.08691 -0.67904,-0.72461 -1.01855,-1.70215 -1.01855,-2.93262 0,-1.24869 0.34179,-2.23079 1.02539,-2.94629 0.68815,-0.71549 1.62923,-1.07323 2.82324,-1.07324 0.38737,10e-6 0.76562,0.041 1.13477,0.12304 0.36913,0.0775 0.72688,0.19598 1.07324,0.35547"
         id="path4303" />
      <path
         d="m 111.93457,193.22402 1.25781,0 0,10.63672 -1.25781,0 0,-10.63672"
         id="path4305" />
      <path
         d="m 115.81738,196.20449 1.25782,0 0,7.65625 -1.25782,0 0,-7.65625 m 0,-2.98047 1.25782,0 0,1.59277 -1.25782,0 0,-1.59277"
         id="path4307" />
      <path
         d="m 126.24902,199.71816 0,0.61523 -5.7832,0 c 0.0547,0.86589 0.31445,1.5267 0.7793,1.98243 0.46939,0.45117 1.12109,0.67676 1.95508,0.67675 0.48306,1e-5 0.95018,-0.0592 1.40136,-0.17773 0.45572,-0.11849 0.9069,-0.29622 1.35352,-0.5332 l 0,1.18945 c -0.45118,0.19141 -0.91375,0.33724 -1.3877,0.4375 -0.47396,0.10026 -0.95476,0.15039 -1.44238,0.15039 -1.22136,0 -2.18978,-0.35547 -2.90527,-1.06641 -0.71094,-0.71093 -1.06641,-1.67252 -1.06641,-2.88476 0,-1.25325 0.33724,-2.24674 1.01172,-2.98047 0.67903,-0.73827 1.59277,-1.10741 2.74121,-1.10742 1.02994,10e-6 1.84342,0.33269 2.44043,0.99804 0.60155,0.66082 0.90234,1.56088 0.90234,2.7002 m -1.25781,-0.36914 c -0.009,-0.68815 -0.2028,-1.2373 -0.58105,-1.64746 -0.37371,-0.41015 -0.87045,-0.61523 -1.49024,-0.61524 -0.70182,1e-5 -1.26465,0.19825 -1.68847,0.59473 -0.41928,0.39649 -0.66081,0.95476 -0.72461,1.67481 l 4.48437,-0.007"
         id="path4309" />
      <path
         d="m 134.67773,199.23964 0,4.6211 -1.25781,0 0,-4.58008 c 0,-0.7246 -0.14128,-1.26692 -0.42383,-1.62695 -0.28255,-0.36002 -0.70638,-0.54004 -1.27148,-0.54004 -0.67904,0 -1.21452,0.21648 -1.60645,0.64941 -0.39193,0.43295 -0.58789,1.02312 -0.58789,1.77051 l 0,4.32715 -1.26465,0 0,-7.65625 1.26465,0 0,1.18945 c 0.30078,-0.46028 0.65397,-0.80435 1.05957,-1.03223 0.41016,-0.22785 0.88184,-0.34178 1.41504,-0.34179 0.87955,10e-6 1.54492,0.27344 1.9961,0.82031 0.45116,0.54232 0.67675,1.34213 0.67675,2.39941"
         id="path4311" />
      <path
         d="m 138.44434,194.03066 0,2.17383 2.59082,0 0,0.97754 -2.59082,0 0,4.15625 c -1e-5,0.62435 0.0843,1.02539 0.25293,1.20312 0.17317,0.17774 0.5218,0.2666 1.04589,0.2666 l 1.292,0 0,1.05274 -1.292,0 c -0.9707,0 -1.64062,-0.18001 -2.00976,-0.54004 -0.36914,-0.36458 -0.55371,-1.02539 -0.55371,-1.98242 l 0,-4.15625 -0.92285,0 0,-0.97754 0.92285,0 0,-2.17383 1.26465,0"
         id="path4313" />
    </g>
    <path
       d="m 530,912.36218 140,0 0,50 -140,0 z"
       id="rect3855-33"
       style="fill:none;stroke:#e1e4e5;stroke-width:1;stroke-linejoin:bevel;stroke-opacity:1" />
    <g
       transform="translate(477.85937,738.50144)"
       id="flowRoot3857-3"
       style="font-size:14px;font-style:normal;font-variant:normal;font-weight:normal;font-stretch:normal;text-align:center;line-height:125%;letter-spacing:0px;word-spacing:0px;writing-mode:lr-tb;text-anchor:middle;fill:#404040;fill-opacity:1;stroke:none;font-family:DejaVu Sans;-inkscape-font-specification:DejaVu Sans">
      <path
         d="m 109.7334,196.49843 0,1.17578 c -0.35548,-0.19595 -0.71322,-0.34179 -1.07324,-0.4375 -0.35548,-0.10025 -0.7155,-0.15038 -1.08008,-0.15039 -0.81576,1e-5 -1.44922,0.25978 -1.90039,0.7793 -0.45118,0.51498 -0.67676,1.23959 -0.67676,2.17383 0,0.93425 0.22558,1.66113 0.67676,2.18066 0.45117,0.51498 1.08463,0.77247 1.90039,0.77246 0.36458,1e-5 0.7246,-0.0479 1.08008,-0.14355 0.36002,-0.10026 0.71776,-0.24837 1.07324,-0.44434 l 0,1.16211 c -0.35092,0.16407 -0.7155,0.28711 -1.09375,0.36914 -0.3737,0.082 -0.77247,0.12305 -1.19629,0.12305 -1.153,0 -2.06901,-0.3623 -2.74805,-1.08691 -0.67904,-0.72461 -1.01855,-1.70215 -1.01855,-2.93262 0,-1.24869 0.34179,-2.23079 1.02539,-2.94629 0.68815,-0.71549 1.62923,-1.07323 2.82324,-1.07324 0.38737,10e-6 0.76562,0.041 1.13477,0.12304 0.36913,0.0775 0.72688,0.19598 1.07324,0.35547"
         id="path4289" />
      <path
         d="m 111.93457,193.22402 1.25781,0 0,10.63672 -1.25781,0 0,-10.63672"
         id="path4291" />
      <path
         d="m 115.81738,196.20449 1.25782,0 0,7.65625 -1.25782,0 0,-7.65625 m 0,-2.98047 1.25782,0 0,1.59277 -1.25782,0 0,-1.59277"
         id="path4293" />
      <path
         d="m 126.24902,199.71816 0,0.61523 -5.7832,0 c 0.0547,0.86589 0.31445,1.5267 0.7793,1.98243 0.46939,0.45117 1.12109,0.67676 1.95508,0.67675 0.48306,1e-5 0.95018,-0.0592 1.40136,-0.17773 0.45572,-0.11849 0.9069,-0.29622 1.35352,-0.5332 l 0,1.18945 c -0.45118,0.19141 -0.91375,0.33724 -1.3877,0.4375 -0.47396,0.10026 -0.95476,0.15039 -1.44238,0.15039 -1.22136,0 -2.18978,-0.35547 -2.90527,-1.06641 -0.71094,-0.71093 -1.06641,-1.67252 -1.06641,-2.88476 0,-1.25325 0.33724,-2.24674 1.01172,-2.98047 0.67903,-0.73827 1.59277,-1.10741 2.74121,-1.10742 1.02994,10e-6 1.84342,0.33269 2.44043,0.99804 0.60155,0.66082 0.90234,1.56088 0.90234,2.7002 m -1.25781,-0.36914 c -0.009,-0.68815 -0.2028,-1.2373 -0.58105,-1.64746 -0.37371,-0.41015 -0.87045,-0.61523 -1.49024,-0.61524 -0.70182,1e-5 -1.26465,0.19825 -1.68847,0.59473 -0.41928,0.39649 -0.66081,0.95476 -0.72461,1.67481 l 4.48437,-0.007"
         id="path4295" />
      <path
         d="m 134.67773,199.23964 0,4.6211 -1.25781,0 0,-4.58008 c 0,-0.7246 -0.14128,-1.26692 -0.42383,-1.62695 -0.28255,-0.36002 -0.70638,-0.54004 -1.27148,-0.54004 -0.67904,0 -1.21452,0.21648 -1.60645,0.64941 -0.39193,0.43295 -0.58789,1.02312 -0.58789,1.77051 l 0,4.32715 -1.26465,0 0,-7.65625 1.26465,0 0,1.18945 c 0.30078,-0.46028 0.65397,-0.80435 1.05957,-1.03223 0.41016,-0.22785 0.88184,-0.34178 1.41504,-0.34179 0.87955,10e-6 1.54492,0.27344 1.9961,0.82031 0.45116,0.54232 0.67675,1.34213 0.67675,2.39941"
         id="path4297" />
      <path
         d="m 138.44434,194.03066 0,2.17383 2.59082,0 0,0.97754 -2.59082,0 0,4.15625 c -1e-5,0.62435 0.0843,1.02539 0.25293,1.20312 0.17317,0.17774 0.5218,0.2666 1.04589,0.2666 l 1.292,0 0,1.05274 -1.292,0 c -0.9707,0 -1.64062,-0.18001 -2.00976,-0.54004 -0.36914,-0.36458 -0.55371,-1.02539 -0.55371,-1.98242 l 0,-4.15625 -0.92285,0 0,-0.97754 0.92285,0 0,-2.17383 1.26465,0"
         id="path4299" />
    </g>
    <path
       d="m 420,892.36218 c 60,0 60,-60 110,-60"
       id="path3927-1"
       style="fill:none;stroke:#2980b9;stroke-width:2;stroke-linecap:butt;stroke-linejoin:bevel;stroke-miterlimit:4;stroke-opacity:1;stroke-dasharray:none;stroke-dashoffset:0" />
    <path
       d="m 420,902.36218 c 60,0 60,30 110,30"
       id="path3927-7"
       style="fill:none;stroke:#2980b9;stroke-width:2;stroke-linecap:butt;stroke-linejoin:bevel;stroke-miterlimit:4;stroke-opacity:1;stroke-dasharray:none;stroke-dashoffset:0" />
    <g
       transform="translate(347.85937,628.50144)"
       id="flowRoot3857-6-4"
       style="font-size:14px;font-style:oblique;font-variant:normal;font-weight:normal;font-stretch:normal;text-align:center;line-height:125%;letter-spacing:0px;word-spacing:0px;writing-mode:lr-tb;text-anchor:middle;fill:#404040;fill-opacity:1;stroke:none;font-family:DejaVu Sans;-inkscape-font-specification:DejaVu Sans Oblique">
      <path
         d="m 82.300781,196.20449 1.244141,0 0.321289,6.15918 2.857422,-6.15918 1.456054,0 0.423829,6.15918 2.713867,-6.15918 1.257812,0 -3.5,7.65625 -1.469726,0 -0.375977,-6.34375 -2.925781,6.34375 -1.483399,0 -0.519531,-7.65625"
         id="path4268" />
      <path
         d="m 99.301758,199.34902 c 0.01366,-0.0729 0.02278,-0.14811 0.02734,-0.22559 0.0091,-0.0775 0.01366,-0.15494 0.01367,-0.23242 -6e-6,-0.55598 -0.164069,-0.99576 -0.492187,-1.31933 -0.323574,-0.32357 -0.765631,-0.48535 -1.326172,-0.48536 -0.624353,1e-5 -1.175785,0.19825 -1.654297,0.59473 -0.478518,0.39193 -0.840823,0.9502 -1.086914,1.67481 l 4.518555,-0.007 m 1.093757,0.98437 -5.85157,0 c -0.02734,0.17318 -0.04557,0.3099 -0.05469,0.41016 -0.0091,0.10026 -0.01367,0.18685 -0.01367,0.25977 -2e-6,0.63346 0.193683,1.12337 0.581055,1.46972 0.391924,0.34636 0.943356,0.51954 1.654296,0.51953 0.546871,1e-5 1.064123,-0.0615 1.551758,-0.18457 0.487624,-0.12304 0.941074,-0.30305 1.360352,-0.54004 l -0.239258,1.24415 c -0.451178,0.18229 -0.9183,0.31901 -1.401367,0.41015 -0.478521,0.0911 -0.96615,0.13672 -1.462891,0.13672 -1.061852,0 -1.879885,-0.25293 -2.454101,-0.75879 -0.569663,-0.51041 -0.854493,-1.23274 -0.854493,-2.16699 0,-0.79752 0.141276,-1.53808 0.423829,-2.22168 0.287108,-0.68815 0.706378,-1.3011 1.257812,-1.83887 0.355466,-0.33723 0.777015,-0.597 1.264649,-0.77929 0.492183,-0.18229 1.013992,-0.27343 1.565429,-0.27344 0.86588,1e-5 1.55403,0.25977 2.064453,0.77929 0.514967,0.51954 0.772447,1.21681 0.772457,2.0918 -1e-5,0.20964 -0.0137,0.43523 -0.041,0.67676 -0.0273,0.23698 -0.0684,0.49219 -0.12304,0.76562"
         id="path4270" />
      <path
         d="m 108.11328,199.18496 c -1e-5,-0.6608 -0.15267,-1.17806 -0.45801,-1.55176 -0.30078,-0.37369 -0.71778,-0.56054 -1.25097,-0.56055 -0.38738,1e-5 -0.75196,0.0957 -1.09375,0.28711 -0.33725,0.18686 -0.63119,0.46029 -0.88184,0.82031 -0.26432,0.37826 -0.47396,0.81804 -0.62891,1.31934 -0.15039,0.49675 -0.22558,0.99349 -0.22558,1.49023 0,0.62891 0.14811,1.12338 0.44433,1.4834 0.30078,0.35547 0.71322,0.53321 1.23731,0.53321 0.39648,0 0.76334,-0.0911 1.10059,-0.27344 0.33723,-0.18685 0.63345,-0.46029 0.88867,-0.82031 0.25976,-0.3737 0.46939,-0.80892 0.6289,-1.30567 0.1595,-0.49674 0.23925,-0.9707 0.23926,-1.42187 m -3.91015,-1.81836 c 0.30989,-0.41927 0.69726,-0.74739 1.1621,-0.98438 0.4694,-0.24153 0.95931,-0.36229 1.46973,-0.3623 0.78385,10e-6 1.40592,0.26433 1.86621,0.79297 0.46484,0.52865 0.69726,1.24414 0.69727,2.14648 -10e-6,0.73829 -0.13673,1.45378 -0.41016,2.14649 -0.26889,0.69271 -0.65398,1.30794 -1.15527,1.8457 -0.32813,0.35547 -0.70639,0.62891 -1.13477,0.82031 -0.42839,0.19141 -0.87728,0.28711 -1.34668,0.28711 -0.49675,0 -0.92741,-0.11393 -1.29199,-0.3418 -0.36459,-0.22786 -0.66081,-0.56738 -0.88867,-1.01855 l -0.22559,1.16211 -1.25781,0 2.07129,-10.63672 1.25781,0 -0.81347,4.14258"
         id="path4272" />
      <path
         d="m 117.06836,196.43007 -0.23926,1.18946 c -0.33269,-0.18229 -0.6836,-0.31901 -1.05273,-0.41016 -0.36915,-0.0911 -0.74968,-0.13671 -1.1416,-0.13672 -0.66082,1e-5 -1.18262,0.11394 -1.56543,0.3418 -0.37826,0.22331 -0.56739,0.52865 -0.56739,0.91601 0,0.45118 0.44206,0.79754 1.32618,1.03907 0.0683,0.0182 0.11848,0.0319 0.15039,0.041 l 0.40332,0.12305 c 0.83853,0.23243 1.3968,0.47624 1.6748,0.73145 0.28255,0.25521 0.42382,0.60384 0.42383,1.04589 -1e-5,0.8112 -0.32358,1.47201 -0.9707,1.98243 -0.64259,0.51041 -1.48569,0.76562 -2.5293,0.76562 -0.4056,0 -0.83171,-0.0387 -1.27832,-0.11621 -0.44662,-0.0775 -0.9388,-0.19824 -1.47656,-0.36231 l 0.24609,-1.29882 c 0.46029,0.23698 0.91374,0.41699 1.36035,0.54004 0.44661,0.12304 0.875,0.18457 1.28516,0.18457 0.61523,0 1.11425,-0.13216 1.49707,-0.39649 0.38736,-0.26432 0.58105,-0.59928 0.58105,-1.00488 0,-0.4375 -0.50586,-0.79069 -1.51758,-1.05957 l -0.12988,-0.0342 -0.43066,-0.10938 c -0.63803,-0.16861 -1.10515,-0.38964 -1.40137,-0.66308 -0.29622,-0.27799 -0.44434,-0.63118 -0.44434,-1.05957 0,-0.81575 0.30534,-1.46289 0.91602,-1.94141 0.61523,-0.47851 1.44922,-0.71776 2.50195,-0.71777 0.41471,1e-5 0.81803,0.0342 1.20996,0.10254 0.39648,0.0684 0.78613,0.1709 1.16895,0.30761"
         id="path4274" />
      <path
         d="m 120.92383,204.05898 c -0.89779,0 -1.60873,-0.27572 -2.13281,-0.82715 -0.51954,-0.55599 -0.7793,-1.3125 -0.7793,-2.26953 0,-0.55599 0.0889,-1.12109 0.2666,-1.69531 0.18229,-0.57877 0.41699,-1.06412 0.7041,-1.45606 0.45117,-0.61067 0.95475,-1.06184 1.51074,-1.35351 0.55599,-0.29166 1.1849,-0.43749 1.88672,-0.4375 0.87044,10e-6 1.57226,0.27116 2.10547,0.81347 0.53775,0.54233 0.80663,1.25099 0.80664,2.12598 -1e-5,0.60613 -0.0889,1.20997 -0.2666,1.81152 -0.17774,0.60157 -0.41016,1.10059 -0.69726,1.49707 -0.44663,0.61068 -0.94793,1.06185 -1.50391,1.35352 -0.556,0.29167 -1.18946,0.4375 -1.90039,0.4375 m -1.60645,-3.13769 c 0,0.69271 0.14356,1.21224 0.43067,1.55859 0.29166,0.3418 0.73144,0.5127 1.31933,0.51269 0.8431,1e-5 1.54036,-0.36686 2.0918,-1.10058 0.55598,-0.73828 0.83398,-1.67252 0.83398,-2.80274 0,-0.6608 -0.14811,-1.15982 -0.44433,-1.49707 -0.29623,-0.33723 -0.73145,-0.50585 -1.30567,-0.50586 -0.47396,1e-5 -0.89551,0.11166 -1.26464,0.33497 -0.36915,0.21875 -0.69955,0.55371 -0.99122,1.00488 -0.21419,0.33724 -0.38053,0.72233 -0.49902,1.15527 -0.11393,0.43295 -0.1709,0.87956 -0.1709,1.33985"
         id="path4276" />
      <path
         d="m 133.43359,196.49843 -0.25293,1.24414 c -0.30078,-0.21874 -0.62207,-0.3828 -0.96386,-0.49218 -0.33725,-0.10937 -0.68816,-0.16406 -1.05274,-0.16407 -0.40104,1e-5 -0.78386,0.0707 -1.14844,0.21192 -0.36002,0.14128 -0.66308,0.3418 -0.90917,0.60156 -0.39193,0.39649 -0.69499,0.86133 -0.90918,1.39453 -0.2142,0.53321 -0.3213,1.08464 -0.32129,1.6543 -1e-5,0.68815 0.17089,1.20085 0.51269,1.53808 0.34635,0.33725 0.87044,0.50587 1.57227,0.50586 0.34635,1e-5 0.71321,-0.0524 1.10058,-0.15722 0.39192,-0.10482 0.7998,-0.26205 1.22364,-0.47168 l -0.23926,1.24414 c -0.36459,0.15039 -0.74057,0.26204 -1.12793,0.33496 -0.38282,0.0775 -0.77702,0.11621 -1.18262,0.11621 -1.01628,0 -1.79785,-0.25293 -2.34472,-0.75879 -0.54688,-0.51041 -0.82032,-1.2373 -0.82032,-2.18066 0,-0.79297 0.14128,-1.52213 0.42383,-2.1875 0.28711,-0.66992 0.71094,-1.27148 1.27148,-1.80469 0.38281,-0.36458 0.83171,-0.64029 1.34668,-0.82715 0.51497,-0.18684 1.0778,-0.28026 1.68848,-0.28027 0.35546,10e-6 0.70865,0.041 1.05957,0.12304 0.35091,0.0775 0.70865,0.19598 1.07324,0.35547"
         id="path4278" />
      <path
         d="m 136.20215,193.22402 1.25781,0 -1.20312,6.20019 4.31347,-3.21972 1.63379,0 -4.8125,3.66406 3.51367,3.99219 -1.52441,0 -3.26758,-3.73926 -0.72461,3.73926 -1.25781,0 2.07129,-10.63672"
         id="path4280" />
      <path
         d="m 148.49316,199.34902 c 0.0137,-0.0729 0.0228,-0.14811 0.0274,-0.22559 0.009,-0.0775 0.0137,-0.15494 0.0137,-0.23242 -1e-5,-0.55598 -0.16407,-0.99576 -0.49219,-1.31933 -0.32357,-0.32357 -0.76563,-0.48535 -1.32617,-0.48536 -0.62435,1e-5 -1.17578,0.19825 -1.6543,0.59473 -0.47852,0.39193 -0.84082,0.9502 -1.08691,1.67481 l 4.51855,-0.007 m 1.09375,0.98437 -5.85156,0 c -0.0273,0.17318 -0.0456,0.3099 -0.0547,0.41016 -0.009,0.10026 -0.0137,0.18685 -0.0137,0.25977 0,0.63346 0.19368,1.12337 0.58106,1.46972 0.39192,0.34636 0.94335,0.51954 1.65429,0.51953 0.54687,1e-5 1.06413,-0.0615 1.55176,-0.18457 0.48763,-0.12304 0.94108,-0.30305 1.36035,-0.54004 l -0.23925,1.24415 c -0.45118,0.18229 -0.9183,0.31901 -1.40137,0.41015 -0.47852,0.0911 -0.96615,0.13672 -1.46289,0.13672 -1.06185,0 -1.87989,-0.25293 -2.4541,-0.75879 -0.56967,-0.51041 -0.8545,-1.23274 -0.8545,-2.16699 0,-0.79752 0.14128,-1.53808 0.42383,-2.22168 0.28711,-0.68815 0.70638,-1.3011 1.25781,-1.83887 0.35547,-0.33723 0.77702,-0.597 1.26465,-0.77929 0.49219,-0.18229 1.014,-0.27343 1.56543,-0.27344 0.86588,1e-5 1.55403,0.25977 2.06446,0.77929 0.51496,0.51954 0.77245,1.21681 0.77246,2.0918 -1e-5,0.20964 -0.0137,0.43523 -0.041,0.67676 -0.0273,0.23698 -0.0684,0.49219 -0.12305,0.76562"
         id="path4282" />
      <path
         d="m 156.29297,196.20449 -0.19141,0.97754 -2.50879,0 -0.81347,4.15625 c -0.0274,0.15495 -0.0479,0.28483 -0.0615,0.38965 -0.0137,0.10482 -0.0205,0.18685 -0.0205,0.24609 -1e-5,0.29167 0.0866,0.50358 0.25976,0.63574 0.17773,0.13216 0.46028,0.19824 0.84766,0.19824 l 1.27148,0 -0.21191,1.05274 -1.20313,0 c -0.7474,0 -1.30566,-0.14583 -1.6748,-0.4375 -0.36459,-0.29167 -0.54688,-0.73372 -0.54688,-1.32617 0,-0.10482 0.007,-0.21875 0.0205,-0.3418 0.0137,-0.1276 0.0342,-0.2666 0.0615,-0.41699 l 0.81348,-4.15625 -1.06641,0 0.19825,-0.97754 1.0459,0 0.42382,-2.17383 1.25782,0 -0.417,2.17383 2.51563,0"
         id="path4284" />
      <path
         d="m 162.86914,196.43007 -0.23926,1.18946 c -0.33269,-0.18229 -0.6836,-0.31901 -1.05273,-0.41016 -0.36915,-0.0911 -0.74968,-0.13671 -1.1416,-0.13672 -0.66081,1e-5 -1.18262,0.11394 -1.56543,0.3418 -0.37826,0.22331 -0.56739,0.52865 -0.56739,0.91601 0,0.45118 0.44206,0.79754 1.32618,1.03907 0.0684,0.0182 0.11848,0.0319 0.15039,0.041 l 0.40332,0.12305 c 0.83853,0.23243 1.3968,0.47624 1.6748,0.73145 0.28255,0.25521 0.42382,0.60384 0.42383,1.04589 -1e-5,0.8112 -0.32357,1.47201 -0.9707,1.98243 -0.64259,0.51041 -1.48568,0.76562 -2.5293,0.76562 -0.4056,0 -0.83171,-0.0387 -1.27832,-0.11621 -0.44662,-0.0775 -0.9388,-0.19824 -1.47656,-0.36231 l 0.24609,-1.29882 c 0.46029,0.23698 0.91374,0.41699 1.36035,0.54004 0.44661,0.12304 0.875,0.18457 1.28516,0.18457 0.61523,0 1.11425,-0.13216 1.49707,-0.39649 0.38736,-0.26432 0.58105,-0.59928 0.58105,-1.00488 0,-0.4375 -0.50586,-0.79069 -1.51757,-1.05957 l -0.12989,-0.0342 -0.43066,-0.10938 c -0.63802,-0.16861 -1.10515,-0.38964 -1.40137,-0.66308 -0.29622,-0.27799 -0.44434,-0.63118 -0.44433,-1.05957 -1e-5,-0.81575 0.30533,-1.46289 0.91601,-1.94141 0.61523,-0.47851 1.44922,-0.71776 2.50195,-0.71777 0.41471,1e-5 0.81803,0.0342 1.20997,0.10254 0.39647,0.0684 0.78612,0.1709 1.16894,0.30761"
         id="path4286" />
    </g>
    <g
       transform="translate(477.85937,598.50144)"
       id="flowRoot3857-6-4-3"
       style="font-size:14px;font-style:oblique;font-variant:normal;font-weight:normal;font-stretch:normal;text-align:center;line-height:125%;letter-spacing:0px;word-spacing:0px;writing-mode:lr-tb;text-anchor:middle;fill:#404040;fill-opacity:1;stroke:none;font-family:DejaVu Sans;-inkscape-font-specification:DejaVu Sans Oblique">
      <path
         d="m 100.89453,199.18496 c -1e-5,-0.6608 -0.15267,-1.17806 -0.45801,-1.55176 -0.30078,-0.37369 -0.717776,-0.56054 -1.250973,-0.56055 -0.387375,1e-5 -0.751958,0.0957 -1.09375,0.28711 -0.337244,0.18686 -0.631189,0.46029 -0.881836,0.82031 -0.264326,0.37826 -0.473961,0.81804 -0.628906,1.31934 -0.150393,0.49675 -0.225589,0.99349 -0.225586,1.49023 -3e-6,0.62891 0.148109,1.12338 0.444336,1.4834 0.300778,0.35547 0.713212,0.53321 1.237304,0.53321 0.39648,0 0.763342,-0.0911 1.100586,-0.27344 0.337234,-0.18685 0.633458,-0.46029 0.888675,-0.82031 0.25976,-0.3737 0.46939,-0.80892 0.6289,-1.30567 0.1595,-0.49674 0.23925,-0.9707 0.23926,-1.42187 m -3.910155,-1.81836 c 0.309893,-0.41927 0.697262,-0.74739 1.162109,-0.98438 0.469397,-0.24153 0.959305,-0.36229 1.469727,-0.3623 0.783849,10e-6 1.405919,0.26433 1.866209,0.79297 0.46484,0.52865 0.69726,1.24414 0.69727,2.14648 -10e-6,0.73829 -0.13673,1.45378 -0.41016,2.14649 -0.26889,0.69271 -0.65398,1.30794 -1.15527,1.8457 -0.32813,0.35547 -0.706388,0.62891 -1.134768,0.82031 -0.42839,0.19141 -0.877283,0.28711 -1.34668,0.28711 -0.496748,0 -0.927412,-0.11393 -1.291992,-0.3418 -0.364586,-0.22786 -0.660809,-0.56738 -0.888672,-1.01855 l -0.225586,1.16211 -1.257812,0 2.071289,-10.63672 1.257813,0 -0.813477,4.14258"
         id="path4253" />
      <path
         d="m 109.09082,197.3666 c -0.12761,-0.0684 -0.27344,-0.12076 -0.4375,-0.15723 -0.16407,-0.0365 -0.33952,-0.0547 -0.52637,-0.0547 -0.66992,1e-5 -1.25553,0.25522 -1.75683,0.76563 -0.50131,0.50586 -0.83399,1.1849 -0.99805,2.03711 l -0.77246,3.90332 -1.25781,0 1.49707,-7.65625 1.25781,0 -0.23926,1.18945 c 0.33268,-0.44205 0.72916,-0.78157 1.18946,-1.01855 0.46483,-0.23697 0.9593,-0.35546 1.48339,-0.35547 0.13672,1e-5 0.27116,0.009 0.40332,0.0273 0.13216,0.0137 0.26432,0.0387 0.39649,0.0752 l -0.23926,1.24414"
         id="path4255" />
      <path
         d="m 112.17383,204.05898 c -0.89779,0 -1.60873,-0.27572 -2.13281,-0.82715 -0.51954,-0.55599 -0.7793,-1.3125 -0.7793,-2.26953 0,-0.55599 0.0889,-1.12109 0.2666,-1.69531 0.18229,-0.57877 0.41699,-1.06412 0.7041,-1.45606 0.45117,-0.61067 0.95475,-1.06184 1.51074,-1.35351 0.55599,-0.29166 1.1849,-0.43749 1.88672,-0.4375 0.87044,10e-6 1.57226,0.27116 2.10547,0.81347 0.53775,0.54233 0.80663,1.25099 0.80664,2.12598 -1e-5,0.60613 -0.0889,1.20997 -0.2666,1.81152 -0.17774,0.60157 -0.41016,1.10059 -0.69726,1.49707 -0.44663,0.61068 -0.94793,1.06185 -1.50391,1.35352 -0.556,0.29167 -1.18946,0.4375 -1.90039,0.4375 m -1.60645,-3.13769 c 0,0.69271 0.14356,1.21224 0.43067,1.55859 0.29166,0.3418 0.73144,0.5127 1.31933,0.51269 0.8431,1e-5 1.54036,-0.36686 2.0918,-1.10058 0.55598,-0.73828 0.83398,-1.67252 0.83398,-2.80274 0,-0.6608 -0.14811,-1.15982 -0.44433,-1.49707 -0.29623,-0.33723 -0.73145,-0.50585 -1.30567,-0.50586 -0.47396,1e-5 -0.89551,0.11166 -1.26464,0.33497 -0.36915,0.21875 -0.69955,0.55371 -0.99122,1.00488 -0.21419,0.33724 -0.38053,0.72233 -0.49902,1.15527 -0.11393,0.43295 -0.1709,0.87956 -0.1709,1.33985"
         id="path4257" />
      <path
         d="m 118.36719,196.20449 1.24414,0 0.32129,6.15918 2.85742,-6.15918 1.45605,0 0.42383,6.15918 2.71387,-6.15918 1.25781,0 -3.5,7.65625 -1.46972,0 -0.37598,-6.34375 -2.92578,6.34375 -1.4834,0 -0.51953,-7.65625"
         id="path4259" />
      <path
         d="m 135.63477,196.43007 -0.23926,1.18946 c -0.33269,-0.18229 -0.6836,-0.31901 -1.05274,-0.41016 -0.36914,-0.0911 -0.74968,-0.13671 -1.1416,-0.13672 -0.66081,1e-5 -1.18262,0.11394 -1.56543,0.3418 -0.37826,0.22331 -0.56738,0.52865 -0.56738,0.91601 0,0.45118 0.44205,0.79754 1.32617,1.03907 0.0684,0.0182 0.11849,0.0319 0.15039,0.041 l 0.40332,0.12305 c 0.83854,0.23243 1.39681,0.47624 1.67481,0.73145 0.28254,0.25521 0.42382,0.60384 0.42382,1.04589 0,0.8112 -0.32357,1.47201 -0.9707,1.98243 -0.64258,0.51041 -1.48568,0.76562 -2.5293,0.76562 -0.4056,0 -0.8317,-0.0387 -1.27832,-0.11621 -0.44661,-0.0775 -0.9388,-0.19824 -1.47656,-0.36231 l 0.2461,-1.29882 c 0.46028,0.23698 0.91373,0.41699 1.36035,0.54004 0.44661,0.12304 0.87499,0.18457 1.28515,0.18457 0.61523,0 1.11426,-0.13216 1.49707,-0.39649 0.38737,-0.26432 0.58105,-0.59928 0.58106,-1.00488 -1e-5,-0.4375 -0.50587,-0.79069 -1.51758,-1.05957 l -0.12988,-0.0342 -0.43067,-0.10938 c -0.63802,-0.16861 -1.10514,-0.38964 -1.40136,-0.66308 -0.29623,-0.27799 -0.44434,-0.63118 -0.44434,-1.05957 0,-0.81575 0.30534,-1.46289 0.91602,-1.94141 0.61523,-0.47851 1.44921,-0.71776 2.50195,-0.71777 0.41471,1e-5 0.81803,0.0342 1.20996,0.10254 0.39648,0.0684 0.78613,0.1709 1.16895,0.30761"
         id="path4261" />
      <path
         d="m 142.66895,199.34902 c 0.0137,-0.0729 0.0228,-0.14811 0.0273,-0.22559 0.009,-0.0775 0.0137,-0.15494 0.0137,-0.23242 -1e-5,-0.55598 -0.16407,-0.99576 -0.49219,-1.31933 -0.32357,-0.32357 -0.76563,-0.48535 -1.32617,-0.48536 -0.62435,1e-5 -1.17578,0.19825 -1.6543,0.59473 -0.47851,0.39193 -0.84082,0.9502 -1.08691,1.67481 l 4.51856,-0.007 m 1.09375,0.98437 -5.85157,0 c -0.0273,0.17318 -0.0456,0.3099 -0.0547,0.41016 -0.009,0.10026 -0.0137,0.18685 -0.0137,0.25977 0,0.63346 0.19369,1.12337 0.58106,1.46972 0.39192,0.34636 0.94335,0.51954 1.65429,0.51953 0.54688,1e-5 1.06413,-0.0615 1.55176,-0.18457 0.48763,-0.12304 0.94108,-0.30305 1.36035,-0.54004 l -0.23925,1.24415 c -0.45118,0.18229 -0.9183,0.31901 -1.40137,0.41015 -0.47852,0.0911 -0.96615,0.13672 -1.46289,0.13672 -1.06185,0 -1.87989,-0.25293 -2.4541,-0.75879 -0.56967,-0.51041 -0.8545,-1.23274 -0.8545,-2.16699 0,-0.79752 0.14128,-1.53808 0.42383,-2.22168 0.28711,-0.68815 0.70638,-1.3011 1.25782,-1.83887 0.35546,-0.33723 0.77701,-0.597 1.26464,-0.77929 0.49219,-0.18229 1.014,-0.27343 1.56543,-0.27344 0.86588,1e-5 1.55403,0.25977 2.06446,0.77929 0.51496,0.51954 0.77245,1.21681 0.77246,2.0918 -1e-5,0.20964 -0.0137,0.43523 -0.041,0.67676 -0.0273,0.23698 -0.0684,0.49219 -0.12304,0.76562"
         id="path4263" />
      <path
         d="m 150.79004,197.3666 c -0.12761,-0.0684 -0.27344,-0.12076 -0.4375,-0.15723 -0.16407,-0.0365 -0.33952,-0.0547 -0.52637,-0.0547 -0.66992,1e-5 -1.25554,0.25522 -1.75683,0.76563 -0.50131,0.50586 -0.83399,1.1849 -0.99805,2.03711 l -0.77246,3.90332 -1.25781,0 1.49707,-7.65625 1.25781,0 -0.23926,1.18945 c 0.33268,-0.44205 0.72916,-0.78157 1.18945,-1.01855 0.46484,-0.23697 0.95931,-0.35546 1.4834,-0.35547 0.13672,1e-5 0.27116,0.009 0.40332,0.0273 0.13216,0.0137 0.26432,0.0387 0.39649,0.0752 l -0.23926,1.24414"
         id="path4265" />
    </g>
    <g
       transform="translate(-22.140625,598.50144)"
       id="flowRoot3857-6-4-6"
       style="font-size:14px;font-style:oblique;font-variant:normal;font-weight:normal;font-stretch:normal;text-align:center;line-height:125%;letter-spacing:0px;word-spacing:0px;writing-mode:lr-tb;text-anchor:middle;fill:#404040;fill-opacity:1;stroke:none;font-family:DejaVu Sans;-inkscape-font-specification:DejaVu Sans Oblique">
      <path
         d="m 106.24707,197.3666 c -0.12761,-0.0684 -0.27344,-0.12076 -0.4375,-0.15723 -0.16407,-0.0365 -0.33952,-0.0547 -0.52637,-0.0547 -0.66992,1e-5 -1.25553,0.25522 -1.75683,0.76563 -0.50131,0.50586 -0.83399,1.1849 -0.99805,2.03711 l -0.77246,3.90332 -1.25781,0 1.49707,-7.65625 1.25781,0 -0.23926,1.18945 c 0.33268,-0.44205 0.72916,-0.78157 1.18946,-1.01855 0.46483,-0.23697 0.9593,-0.35546 1.48339,-0.35547 0.13672,1e-5 0.27116,0.009 0.40332,0.0273 0.13216,0.0137 0.26432,0.0387 0.39649,0.0752 l -0.23926,1.24414"
         id="path4240" />
      <path
         d="m 109.33008,204.05898 c -0.89779,0 -1.60873,-0.27572 -2.13281,-0.82715 -0.51954,-0.55599 -0.7793,-1.3125 -0.7793,-2.26953 0,-0.55599 0.0889,-1.12109 0.2666,-1.69531 0.18229,-0.57877 0.41699,-1.06412 0.7041,-1.45606 0.45117,-0.61067 0.95475,-1.06184 1.51074,-1.35351 0.55599,-0.29166 1.1849,-0.43749 1.88672,-0.4375 0.87044,10e-6 1.57226,0.27116 2.10547,0.81347 0.53775,0.54233 0.80663,1.25099 0.80664,2.12598 -1e-5,0.60613 -0.0889,1.20997 -0.2666,1.81152 -0.17774,0.60157 -0.41016,1.10059 -0.69726,1.49707 -0.44663,0.61068 -0.94793,1.06185 -1.50391,1.35352 -0.556,0.29167 -1.18946,0.4375 -1.90039,0.4375 m -1.60645,-3.13769 c 0,0.69271 0.14356,1.21224 0.43067,1.55859 0.29166,0.3418 0.73144,0.5127 1.31933,0.51269 0.8431,1e-5 1.54036,-0.36686 2.0918,-1.10058 0.55598,-0.73828 0.83398,-1.67252 0.83398,-2.80274 0,-0.6608 -0.14811,-1.15982 -0.44433,-1.49707 -0.29623,-0.33723 -0.73145,-0.50585 -1.30567,-0.50586 -0.47396,1e-5 -0.89551,0.11166 -1.26464,0.33497 -0.36915,0.21875 -0.69955,0.55371 -0.99122,1.00488 -0.21419,0.33724 -0.38053,0.72233 -0.49902,1.15527 -0.11393,0.43295 -0.1709,0.87956 -0.1709,1.33985"
         id="path4242" />
      <path
         d="m 121.83984,196.49843 -0.25293,1.24414 c -0.30078,-0.21874 -0.62207,-0.3828 -0.96386,-0.49218 -0.33725,-0.10937 -0.68816,-0.16406 -1.05274,-0.16407 -0.40104,1e-5 -0.78386,0.0707 -1.14843,0.21192 -0.36003,0.14128 -0.66309,0.3418 -0.90918,0.60156 -0.39193,0.39649 -0.69499,0.86133 -0.90918,1.39453 -0.2142,0.53321 -0.3213,1.08464 -0.32129,1.6543 -1e-5,0.68815 0.17089,1.20085 0.51269,1.53808 0.34635,0.33725 0.87044,0.50587 1.57227,0.50586 0.34635,1e-5 0.71321,-0.0524 1.10058,-0.15722 0.39192,-0.10482 0.7998,-0.26205 1.22364,-0.47168 l -0.23926,1.24414 c -0.36459,0.15039 -0.74057,0.26204 -1.12793,0.33496 -0.38282,0.0775 -0.77702,0.11621 -1.18262,0.11621 -1.01628,0 -1.79785,-0.25293 -2.34472,-0.75879 -0.54688,-0.51041 -0.82032,-1.2373 -0.82032,-2.18066 0,-0.79297 0.14128,-1.52213 0.42383,-2.1875 0.28711,-0.66992 0.71094,-1.27148 1.27149,-1.80469 0.3828,-0.36458 0.8317,-0.64029 1.34667,-0.82715 0.51497,-0.18684 1.0778,-0.28026 1.68848,-0.28027 0.35546,10e-6 0.70865,0.041 1.05957,0.12304 0.35091,0.0775 0.70865,0.19598 1.07324,0.35547"
         id="path4244" />
      <path
         d="m 124.6084,193.22402 1.25781,0 -1.20312,6.20019 4.31347,-3.21972 1.63379,0 -4.8125,3.66406 3.51367,3.99219 -1.52441,0 -3.26758,-3.73926 -0.72461,3.73926 -1.25781,0 2.07129,-10.63672"
         id="path4246" />
      <path
         d="m 136.89941,199.34902 c 0.0137,-0.0729 0.0228,-0.14811 0.0274,-0.22559 0.009,-0.0775 0.0137,-0.15494 0.0137,-0.23242 -1e-5,-0.55598 -0.16407,-0.99576 -0.49219,-1.31933 -0.32357,-0.32357 -0.76563,-0.48535 -1.32617,-0.48536 -0.62435,1e-5 -1.17578,0.19825 -1.6543,0.59473 -0.47852,0.39193 -0.84082,0.9502 -1.08691,1.67481 l 4.51855,-0.007 m 1.09375,0.98437 -5.85156,0 c -0.0273,0.17318 -0.0456,0.3099 -0.0547,0.41016 -0.009,0.10026 -0.0137,0.18685 -0.0137,0.25977 0,0.63346 0.19368,1.12337 0.58106,1.46972 0.39192,0.34636 0.94335,0.51954 1.65429,0.51953 0.54687,1e-5 1.06413,-0.0615 1.55176,-0.18457 0.48763,-0.12304 0.94108,-0.30305 1.36035,-0.54004 l -0.23925,1.24415 c -0.45118,0.18229 -0.9183,0.31901 -1.40137,0.41015 -0.47852,0.0911 -0.96615,0.13672 -1.46289,0.13672 -1.06185,0 -1.87989,-0.25293 -2.4541,-0.75879 -0.56967,-0.51041 -0.8545,-1.23274 -0.8545,-2.16699 0,-0.79752 0.14128,-1.53808 0.42383,-2.22168 0.28711,-0.68815 0.70638,-1.3011 1.25781,-1.83887 0.35547,-0.33723 0.77702,-0.597 1.26465,-0.77929 0.49219,-0.18229 1.014,-0.27343 1.56543,-0.27344 0.86588,1e-5 1.55403,0.25977 2.06446,0.77929 0.51496,0.51954 0.77245,1.21681 0.77246,2.0918 -1e-5,0.20964 -0.0137,0.43523 -0.041,0.67676 -0.0273,0.23698 -0.0684,0.49219 -0.12305,0.76562"
         id="path4248" />
      <path
         d="m 144.69922,196.20449 -0.19141,0.97754 -2.50879,0 -0.81347,4.15625 c -0.0274,0.15495 -0.0479,0.28483 -0.0615,0.38965 -0.0137,0.10482 -0.0205,0.18685 -0.0205,0.24609 -1e-5,0.29167 0.0866,0.50358 0.25976,0.63574 0.17773,0.13216 0.46028,0.19824 0.84766,0.19824 l 1.27148,0 -0.21191,1.05274 -1.20313,0 c -0.7474,0 -1.30566,-0.14583 -1.6748,-0.4375 -0.36459,-0.29167 -0.54688,-0.73372 -0.54688,-1.32617 0,-0.10482 0.007,-0.21875 0.0205,-0.3418 0.0137,-0.1276 0.0342,-0.2666 0.0615,-0.41699 l 0.81348,-4.15625 -1.06641,0 0.19825,-0.97754 1.0459,0 0.42382,-2.17383 1.25782,0 -0.417,2.17383 2.51563,0"
         id="path4250" />
    </g>
    <path
       d="m 530,982.36218 140,0 0,50.00002 -140,0 z"
       id="rect3855-5-8"
       style="fill:none;stroke:#e1e4e5;stroke-width:1;stroke-linejoin:bevel;stroke-opacity:1" />
    <g
       transform="translate(477.85937,808.50144)"
       id="flowRoot3857-9-9"
       style="font-size:14px;font-style:normal;font-variant:normal;font-weight:normal;font-stretch:normal;text-align:center;line-height:125%;letter-spacing:0px;word-spacing:0px;writing-mode:lr-tb;text-anchor:middle;fill:#404040;fill-opacity:1;stroke:none;font-family:DejaVu Sans;-inkscape-font-specification:DejaVu Sans">
      <path
         d="m 114.72363,202.12441 1.44239,0 0,1.73633 -1.44239,0 0,-1.73633"
         id="path4230" />
      <path
         d="m 119.18066,202.12441 1.44239,0 0,1.73633 -1.44239,0 0,-1.73633"
         id="path4232" />
      <path
         d="m 123.6377,202.12441 1.44238,0 0,1.73633 -1.44238,0 0,-1.73633"
         id="path4234" />
      <path
         d="m 128.09473,202.12441 1.44238,0 0,1.73633 -1.44238,0 0,-1.73633"
         id="path4236" />
    </g>
    <path
       d="m 420,912.36218 c 60,0 60,90.00002 110,90.00002"
       id="path3927-7-3"
       style="fill:none;stroke:#2980b9;stroke-width:2;stroke-linecap:butt;stroke-linejoin:bevel;stroke-miterlimit:4;stroke-opacity:1;stroke-dasharray:4, 4;stroke-dashoffset:0" />
    <g
       transform="translate(97.859375,628.50144)"
       id="flowRoot3857-6-4-1"
       style="font-size:14px;font-style:oblique;font-variant:normal;font-weight:normal;font-stretch:normal;text-align:center;line-height:125%;letter-spacing:0px;word-spacing:0px;writing-mode:lr-tb;text-anchor:middle;fill:#404040;fill-opacity:1;stroke:none;font-family:DejaVu Sans;-inkscape-font-specification:DejaVu Sans Oblique">
      <path
         d="m 98.508789,197.3666 c -0.12761,-0.0684 -0.273443,-0.12076 -0.4375,-0.15723 -0.164068,-0.0365 -0.339524,-0.0547 -0.526367,-0.0547 -0.669927,1e-5 -1.255538,0.25522 -1.756836,0.76563 -0.501305,0.50586 -0.833987,1.1849 -0.998047,2.03711 l -0.772461,3.90332 -1.257812,0 1.49707,-7.65625 1.257812,0 -0.239257,1.18945 c 0.332679,-0.44205 0.729163,-0.78157 1.189453,-1.01855 0.464839,-0.23697 0.959304,-0.35546 1.483398,-0.35547 0.136713,1e-5 0.271153,0.009 0.40332,0.0273 0.132156,0.0137 0.264317,0.0387 0.396485,0.0752 l -0.239258,1.24414"
         id="path4217" />
      <path
         d="m 105.55664,199.49257 -0.85449,4.36817 -1.25781,0 0.23242,-1.16211 c -0.36915,0.45573 -0.7907,0.79753 -1.26465,1.02539 -0.46941,0.22331 -0.99349,0.33496 -1.57227,0.33496 -0.65169,0 -1.187172,-0.19824 -1.606442,-0.59473 -0.414714,-0.40104 -0.62207,-0.91373 -0.62207,-1.53808 0,-0.89323 0.355468,-1.59961 1.066406,-2.11914 0.715496,-0.51953 1.699866,-0.77929 2.953126,-0.7793 l 1.75,0 0.0684,-0.33496 c 0.009,-0.0365 0.0159,-0.0752 0.0205,-0.11621 0.005,-0.0456 0.007,-0.11393 0.007,-0.20508 0,-0.40559 -0.16634,-0.72005 -0.49902,-0.94336 -0.32813,-0.22786 -0.7907,-0.34179 -1.3877,-0.3418 -0.41016,1e-5 -0.83171,0.0524 -1.26464,0.15723 -0.42839,0.10482 -0.87045,0.26205 -1.326177,0.47168 l 0.218747,-1.16211 c 0.47396,-0.17773 0.93652,-0.30989 1.3877,-0.39648 0.45572,-0.0911 0.8955,-0.13671 1.31933,-0.13672 0.90234,10e-6 1.58821,0.19597 2.05762,0.58789 0.47395,0.39193 0.71093,0.96159 0.71094,1.70898 -1e-5,0.1504 -0.0114,0.32813 -0.0342,0.53321 -0.0228,0.20052 -0.057,0.41471 -0.10254,0.64257 m -1.36035,0.51954 -1.25781,0 c -1.02996,0 -1.7933,0.139 -2.29004,0.41699 -0.49219,0.27344 -0.738286,0.69954 -0.738284,1.27832 -2e-6,0.40104 0.125324,0.71549 0.375974,0.94336 0.25521,0.22786 0.60612,0.3418 1.05274,0.34179 0.68359,1e-5 1.28059,-0.24381 1.79101,-0.73144 0.51041,-0.49219 0.84765,-1.14844 1.01172,-1.96875 l 0.0547,-0.28027"
         id="path4219" />
      <path
         d="m 107.8125,196.20449 1.24414,0 0.32129,6.15918 2.85742,-6.15918 1.45606,0 0.42382,6.15918 2.71387,-6.15918 1.25781,0 -3.5,7.65625 -1.46972,0 -0.37598,-6.34375 -2.92578,6.34375 -1.4834,0 -0.51953,-7.65625"
         id="path4221" />
      <path
         d="m 124.7041,193.65468 1.3877,0 -1.20313,6.2002 c -0.0501,0.278 -0.0866,0.50814 -0.10937,0.69043 -0.0182,0.17774 -0.0274,0.33496 -0.0274,0.47168 0,0.62891 0.17546,1.10742 0.52637,1.43555 0.35091,0.32356 0.86588,0.48535 1.54492,0.48535 0.87955,0 1.56315,-0.24154 2.05078,-0.72461 0.49218,-0.48307 0.8431,-1.26921 1.05274,-2.3584 l 1.20312,-6.2002 1.3877,0 -1.23047,6.3711 c -0.26889,1.3763 -0.77931,2.39258 -1.53125,3.04883 -0.75196,0.65625 -1.78191,0.98437 -3.08984,0.98437 -1.02084,0 -1.82976,-0.25521 -2.42676,-0.76562 -0.59245,-0.51498 -0.88867,-1.21224 -0.88867,-2.0918 0,-0.1595 0.0114,-0.33724 0.0342,-0.5332 0.0228,-0.20052 0.057,-0.41471 0.10253,-0.64258 l 1.2168,-6.3711"
         id="path4223" />
      <path
         d="m 135.15625,193.65468 2.9668,0 c 1.57681,10e-6 2.76626,0.33497 3.56836,1.00489 0.80663,0.66537 1.20995,1.65658 1.20996,2.97363 -10e-6,0.87045 -0.15268,1.70899 -0.45801,2.51562 -0.30535,0.80209 -0.7269,1.47885 -1.26465,2.03028 -0.54232,0.5651 -1.23047,0.98665 -2.06445,1.26465 -0.83399,0.27799 -1.82064,0.41699 -2.95996,0.41699 l -2.98731,0 1.98926,-10.20606 m 1.16211,1.13477 -1.53809,7.93652 1.80469,0 c 1.54492,0 2.74121,-0.44433 3.58887,-1.33301 0.84765,-0.88866 1.27147,-2.14192 1.27148,-3.75976 -1e-5,-0.97981 -0.27344,-1.69758 -0.82031,-2.15332 -0.54688,-0.46028 -1.40365,-0.69042 -2.57031,-0.69043 l -1.73633,0"
         id="path4225" />
      <path
         d="m 145.92969,193.65468 3.19238,0 c 0.92968,10e-6 1.63834,0.21648 2.12598,0.64942 0.48762,0.43295 0.73143,1.06641 0.73144,1.90039 -1e-5,1.1211 -0.36003,1.99382 -1.08008,2.61816 -0.72005,0.62436 -1.73177,0.93653 -3.03515,0.93653 l -1.73633,0 -0.79981,4.10156 -1.38769,0 1.98926,-10.20606 m 1.16211,1.13477 -0.73828,3.83496 1.73632,0 c 0.78385,10e-6 1.38541,-0.20052 1.80469,-0.60156 0.41927,-0.40104 0.6289,-0.97526 0.62891,-1.72266 -1e-5,-0.47851 -0.14356,-0.84993 -0.43067,-1.11426 -0.28255,-0.26431 -0.68132,-0.39647 -1.19629,-0.39648 l -1.80468,0"
         id="path4227" />
    </g>
  </g>
</svg>
